<svg width="30" height="30" viewBox="0 0 30 30" fill="none" xmlns="http://www.w3.org/2000/svg">
  <rect width="30" height="30" fill="#4766E3" />
  <path
    d="M7 7.99966C7.00002 7.86668 7.02656 7.73503 7.07807 7.61244C7.12959 7.48984 7.20503 7.37874 7.3 7.28566C8.38984 6.21729 9.84585 5.60439 11.3717 5.57169C12.8975 5.53899 14.3784 6.08896 15.513 7.10966L15.864 7.43766C16.5934 8.07675 17.5302 8.42908 18.5 8.42908C19.4698 8.42908 20.4066 8.07675 21.136 7.43766L21.385 7.21066C21.995 6.72766 22.912 7.11366 22.995 7.88666L23 7.99966V16.9997C23 17.1326 22.9734 17.2643 22.9219 17.3869C22.8704 17.5095 22.795 17.6206 22.7 17.7137C21.6102 18.782 20.1542 19.3949 18.6283 19.4276C17.1025 19.4603 15.6216 18.9104 14.487 17.8897L14.136 17.5617C13.4295 16.9427 12.5278 16.592 11.5887 16.5712C10.6497 16.5503 9.73323 16.8606 9 17.4477V23.9997C8.99972 24.2545 8.90212 24.4997 8.72715 24.685C8.55218 24.8704 8.31305 24.9819 8.05861 24.9968C7.80416 25.0118 7.55362 24.929 7.35817 24.7654C7.16271 24.6018 7.0371 24.3698 7.007 24.1167L7 23.9997V7.99966Z"
    fill="white" />
</svg>
  